<svg id="Layer_1" data-name="Layer 1" xmlns="http://www.w3.org/2000/svg" viewBox="0 0 232.42 47.02"><defs><style>.cls-1{fill:#fff;}</style></defs><title>CP-Logo</title><path class="cls-1" d="M74.65,12.93a7.86,7.86,0,1,0-.05,15.71c5.43,0,8.27-3.95,8.27-7.86,0-4.54-3.46-7.85-8.22-7.85m0,13.14a5.23,5.23,0,0,1-5.4-5.29,5.41,5.41,0,0,1,10.81,0,5.18,5.18,0,0,1-5.41,5.29"/><path class="cls-1" d="M98.49,22c0,1.53-.25,2.4-.84,3a4.58,4.58,0,0,1-3.22,1.09,4,4,0,0,1-3-1.16c-.61-.61-.79-1.24-.79-2.79v-9H88v9.44c0,4.48,3.47,6.07,6.43,6.07,4.35,0,6.85-2.29,6.85-6.28V13.13H98.49Z"/><polygon class="cls-1" points="118.49 23.98 110.07 13.13 107.71 13.13 107.71 28.44 110.31 28.44 110.31 17.66 118.67 28.44 121.09 28.44 121.09 13.13 118.49 13.13 118.49 23.98"/><polygon class="cls-1" points="126.41 15.65 131.49 15.65 131.49 28.45 134.23 28.45 134.23 15.65 139.29 15.65 139.29 13.13 126.41 13.13 126.41 15.65"/><polygon class="cls-1" points="167.2 17.99 163.41 13.13 160.06 13.13 165.85 20.46 165.85 28.44 168.59 28.44 168.59 20.48 174.37 13.13 171.03 13.13 167.2 17.99"/><path class="cls-1" d="M183.85,19.3c-1.3-.73-2.42-1.36-2.42-2.41,0-.85.83-1.43,2-1.43a4.64,4.64,0,0,1,3.23,1.44l.53.5V14.11l-.14-.09a6.23,6.23,0,0,0-3.45-1.09c-2.89,0-4.77,1.67-4.77,4.24,0,2.33,1.95,3.51,3.67,4.54,1.44.88,2.69,1.63,2.69,2.87,0,.59-.57,1.53-2.08,1.53a4.61,4.61,0,0,1-3.63-2l-.56-.72v3.74l.12.1a6.81,6.81,0,0,0,4.31,1.42,4.22,4.22,0,0,0,4.42-4.3c0-2.81-2.18-4-3.93-5"/><rect class="cls-1" x="194.71" y="13.13" width="2.74" height="15.32"/><path class="cls-1" d="M210,13.13h-5V28.44h5a7.72,7.72,0,0,0,8.12-7.66c0-3.68-2.55-7.65-8.14-7.65m-.23,12.79h-2V15.65h1.93c4.18,0,5.67,2.65,5.67,5.13,0,1.91-1.17,5.14-5.56,5.14"/><polygon class="cls-1" points="226.17 25.92 226.17 21.98 232.19 21.98 232.19 19.46 226.17 19.46 226.17 15.65 232.4 15.65 232.4 13.13 223.44 13.13 223.44 28.44 232.42 28.44 232.42 25.92 226.17 25.92"/><path class="cls-1" d="M55.84,26.07a5.22,5.22,0,0,1-5.39-5.29,5.16,5.16,0,0,1,5.39-5.28,5.43,5.43,0,0,1,4.21,1.84L62,15.41a8.31,8.31,0,0,0-6.14-2.48,7.86,7.86,0,1,0,0,15.71A8.14,8.14,0,0,0,62.12,26l-1.93-1.94a5.36,5.36,0,0,1-4.35,2"/><path class="cls-1" d="M153.4,22.05a4.19,4.19,0,0,0,2-1.63,4.6,4.6,0,0,0,.72-2.55,4.44,4.44,0,0,0-1.41-3.43,5.56,5.56,0,0,0-3.82-1.28H145V28.4h2.75V20.08L154,28.42h3.11l-4.57-6.08a7.14,7.14,0,0,0,.89-.29m-5.65-6.4h2.73c1.87,0,2.82.73,2.82,2.16a2.07,2.07,0,0,1-.66,1.66,2.44,2.44,0,0,1-1.79.58h-3.1Z"/><path class="cls-1" d="M50.7,36.25H48.41v8.12h.87V40.69h1.37c2.49,0,2.76-1.57,2.76-2.24,0-1.38-1-2.2-2.71-2.2M49.28,37h1.4c1.15,0,1.81.52,1.81,1.44s-.65,1.46-1.88,1.46H49.28Z"/><rect class="cls-1" x="55.34" y="36.25" width="0.82" height="8.12"/><path class="cls-1" d="M62.12,43.68a.32.32,0,0,1,0-.15V40.31c0-1.1-.9-1.48-1.74-1.48a3.11,3.11,0,0,0-1.74.57l-.06,0v.9l.21-.16a2.31,2.31,0,0,1,1.5-.63c.69,0,1,.31,1,.93V41c-1.95.12-3,.83-3,2a1.47,1.47,0,0,0,1.53,1.45,2.55,2.55,0,0,0,1.52-.53c0,.33.14.53.47.53s.48-.08,1-.5l.14-.11v-.79l-.21.16a5.44,5.44,0,0,1-.64.45m-.83-2v1.43a1.9,1.9,0,0,1-1.31.6.8.8,0,0,1-.89-.73c0-.74.92-1.3,2.15-1.3Z"/><path class="cls-1" d="M67.12,43.67a1.8,1.8,0,0,1-1.86-2,1.83,1.83,0,0,1,1.82-2,3,3,0,0,1,1.3.31l.18.08v-.9l-.09,0a4.12,4.12,0,0,0-1.41-.26,2.66,2.66,0,0,0-2.65,2.89,2.57,2.57,0,0,0,2.67,2.75,4.27,4.27,0,0,0,1.48-.27l.09,0V43.3l-.18.08a3.23,3.23,0,0,1-1.35.29"/><path class="cls-1" d="M72.85,38.83a2.55,2.55,0,0,0-2.5,2.75,2.71,2.71,0,0,0,2.71,2.89,3.22,3.22,0,0,0,2.07-.72l.05,0v-1l-.21.17a2.74,2.74,0,0,1-1.84.75A2,2,0,0,1,71.66,43a2,2,0,0,1-.48-1.41h4.1v-.13a2.42,2.42,0,0,0-2.43-2.63M71.3,40.88a1.58,1.58,0,0,1,1.55-1.25,1.42,1.42,0,0,1,1.48,1.25Z"/><path class="cls-1" d="M78.93,41.22c-.58-.22-1.07-.4-1.07-.88s.43-.74,1-.74a2.33,2.33,0,0,1,1.35.5l.2.14v-.92l-.07,0a2.75,2.75,0,0,0-1.44-.45,1.67,1.67,0,0,0-1.81,1.54c0,1,.84,1.32,1.58,1.61s1.11.44,1.11.92-.4.77-1,.77a3.32,3.32,0,0,1-1.57-.46l-.19-.1v.83l.06,0a3,3,0,0,0,1.63.49,1.69,1.69,0,0,0,1.82-1.56c0-1.07-.89-1.41-1.61-1.69"/><path class="cls-1" d="M89.34,36.25H87v8.12h.88V40.69h1.36c2.49,0,2.76-1.57,2.76-2.24,0-1.38-1-2.2-2.7-2.2M87.92,37h1.4c1.14,0,1.8.52,1.8,1.44s-.65,1.46-1.87,1.46H87.92Z"/><path class="cls-1" d="M96.14,38.83a2.56,2.56,0,0,0-2.51,2.75,2.71,2.71,0,0,0,2.72,2.89,3.24,3.24,0,0,0,2.07-.72l0,0v-1l-.21.17a2.76,2.76,0,0,1-1.84.75A2,2,0,0,1,95,43a1.92,1.92,0,0,1-.48-1.41h4.09v-.13a2.41,2.41,0,0,0-2.42-2.63m-1.55,2.05a1.58,1.58,0,0,1,1.55-1.25,1.41,1.41,0,0,1,1.47,1.25Z"/><path class="cls-1" d="M103,38.83a2.82,2.82,0,1,0,2.75,2.82A2.73,2.73,0,0,0,103,38.83m0,4.84a2,2,0,0,1,0-4,2,2,0,0,1,0,4"/><path class="cls-1" d="M109.86,38.83a3.35,3.35,0,0,0-1.42.31v-.21h-.81V47h.81V44.15a3.14,3.14,0,0,0,1.4.32,2.75,2.75,0,0,0,2.71-2.84,2.66,2.66,0,0,0-2.69-2.8M108.44,40a2.37,2.37,0,0,1,1.23-.33,2,2,0,0,1,2,2,1.86,1.86,0,0,1-1.94,2,2.53,2.53,0,0,1-1.3-.34Z"/><rect class="cls-1" x="114.62" y="36.25" width="0.82" height="8.12"/><path class="cls-1" d="M120.1,38.83a2.55,2.55,0,0,0-2.51,2.75,2.71,2.71,0,0,0,2.71,2.89,3.27,3.27,0,0,0,2.08-.72l.05,0v-1l-.22.17a2.72,2.72,0,0,1-1.84.75A2,2,0,0,1,118.9,43a2,2,0,0,1-.47-1.41h4.09v-.13a2.42,2.42,0,0,0-2.42-2.63m-1.55,2.05a1.57,1.57,0,0,1,1.55-1.25,1.42,1.42,0,0,1,1.47,1.25Z"/><polygon class="cls-1" points="129.82 36.25 128.95 36.25 128.95 44.37 133.71 44.37 133.71 43.6 129.82 43.6 129.82 36.25"/><path class="cls-1" d="M137.74,38.83a2.82,2.82,0,1,0,2.75,2.82,2.74,2.74,0,0,0-2.75-2.82m0,4.84a2,2,0,0,1,0-4,2,2,0,0,1,0,4"/><polygon class="cls-1" points="144.4 43.09 142.55 38.93 141.69 38.93 144.16 44.47 144.68 44.47 147.01 38.93 146.19 38.93 144.4 43.09"/><path class="cls-1" d="M153.23,41.46a2.42,2.42,0,0,0-2.43-2.63,2.55,2.55,0,0,0-2.5,2.75A2.71,2.71,0,0,0,151,44.47a3.27,3.27,0,0,0,2.08-.72l0,0v-1l-.22.17a2.76,2.76,0,0,1-1.84.75,2,2,0,0,1-1.47-.67,1.91,1.91,0,0,1-.47-1.41h4.09Zm-4-.58a1.58,1.58,0,0,1,1.55-1.25,1.42,1.42,0,0,1,1.48,1.25Z"/><path class="cls-1" d="M25,6.75l-3.69,3.79V5.06a.6.6,0,0,0-.59-.6h0a.61.61,0,0,0-.59.6v5.49L16.4,6.75a1.74,1.74,0,0,1,0-2.46L20.67,0,25,4.29a1.76,1.76,0,0,1,0,2.46M37.05,25l4.29-4.28L37,16.39a1.74,1.74,0,0,0-2.45,0l-3.8,3.69h5.48a.62.62,0,0,1,.61.59h0a.61.61,0,0,1-.6.59H30.79L34.59,25a1.76,1.76,0,0,0,2.46,0M16.39,37.05l4.28,4.29L24.94,37a1.73,1.73,0,0,0,0-2.45l-3.68-3.8v5.48a.62.62,0,0,1-.6.61h0a.6.6,0,0,1-.58-.6V30.79l-3.69,3.8a1.76,1.76,0,0,0,0,2.46M4.29,16.39,0,20.67l4.3,4.27a1.73,1.73,0,0,0,2.45,0l3.8-3.68H5.06a.62.62,0,0,1-.6-.6h0a.61.61,0,0,1,.6-.59h5.48L6.75,16.39a1.74,1.74,0,0,0-2.46,0M34.44,6.91H27l-5.24,5.24,3.29,3.3,3.35-3.35a.58.58,0,1,1,.82.83l-3.34,3.34,3.29,3.3,5.24-5.24Zm0,27.53h0V27l-5.24-5.24L25.9,25.08l3.34,3.35a.58.58,0,1,1-.82.82l-3.35-3.34L21.78,29.2,27,34.44Zm-27.54,0h7.42l5.24-5.24-3.3-3.29-3.34,3.34a.58.58,0,1,1-.83-.82l3.35-3.35-3.3-3.29L6.89,27Zm0-27.54h0v7.41l5.24,5.24,3.29-3.3L12.1,12.91a.58.58,0,1,1,.82-.83l3.34,3.35,3.3-3.3L14.32,6.89Z"/></svg>